<?xml version="1.0" encoding="utf-8"?>
<!-- Svg Vector Icons : http://www.onlinewebfonts.com/icon -->
<!DOCTYPE svg PUBLIC "-//W3C//DTD SVG 1.1//EN" "http://www.w3.org/Graphics/SVG/1.1/DTD/svg11.dtd">
<svg version="1.1" xmlns="http://www.w3.org/2000/svg" xmlns:xlink="http://www.w3.org/1999/xlink" x="0px" y="0px" viewBox="0 0 1000 1000" enable-background="new 0 0 1000 1000" xml:space="preserve">
<metadata> Svg Vector Icons : http://www.onlinewebfonts.com/icon </metadata>
<g><path d="M716.6,270l-137,94.5H377.4c-68.7,0-124.4,39-124.4,107.8c0,58.1,39.5,98.6,93.3,108.9c0.7,4.2,0,124.4,0,124.4c0,17.2,13.9,32.2,31.1,32.2H424c17.2,0,25.1-16.2,25.1-33.4V582.3h130.4l137,92.2c17.2,0,28.1-15.1,28.1-32.2V300C744.7,282.8,733.8,270,716.6,270z M418.1,688.9c0,8.6-1,17.8-9.6,17.8h-15.6c-8.6,0-21.5-9.2-21.5-17.8V582.3h46.7V688.9z M495.8,551.2H377.4c-30.9,0-93.3-9.1-93.3-77.8c0-68.7,61.4-77.8,93.3-77.8h118.5V551.2z M573.6,551.2h-46.7V395.6h46.7C573.6,395.6,573.6,535.6,573.6,551.2z M713.6,642.2l-108.9-77.8c0-25.1,0-172.4,0-186.7L713.6,300C713.6,319,713.6,624.7,713.6,642.2z"/><path d="M500,10C229.4,10,10,229.4,10,500s219.4,490,490,490s490-219.4,490-490S770.6,10,500,10z M500,974.4C238.4,974.4,25.6,761.6,25.6,500S238.4,25.6,500,25.6S974.4,238.4,974.4,500S761.6,974.4,500,974.4z"/></g>
</svg>